<svg data-v-fde0c5aa="" xmlns="http://www.w3.org/2000/svg" viewBox="0 0 300 300" class="iconLeft"><!----><defs data-v-fde0c5aa=""><!----></defs><rect data-v-fde0c5aa="" fill="transparent" x="0" y="0" width="300px" height="300px" class="logo-background-square"></rect><defs data-v-fde0c5aa=""><!----></defs><g data-v-fde0c5aa="" id="faa8477c-5111-4c6a-a7b5-f82a3aee2b36" fill="#000000" transform="matrix(1.146655559539795,0,0,1.146655559539795,74.87245382033213,136.33759930435897)"><path d="M3.64 12.49L3.64 10.72L7.84 10.72L7.84 15.68L6.16 15.68L6.16 14.59L5.91 14.59L5.91 14.59Q5.74 15.13 5.26 15.50L5.26 15.50L5.26 15.50Q4.79 15.88 3.84 15.88L3.84 15.88L3.84 15.88Q3.16 15.88 2.58 15.62L2.58 15.62L2.58 15.62Q1.99 15.37 1.55 14.88L1.55 14.88L1.55 14.88Q1.12 14.38 0.87 13.64L0.87 13.64L0.87 13.64Q0.62 12.91 0.62 11.93L0.62 11.93L0.62 9.63L0.62 9.63Q0.62 8.68 0.89 7.94L0.89 7.94L0.89 7.94Q1.16 7.21 1.65 6.71L1.65 6.71L1.65 6.71Q2.13 6.20 2.80 5.94L2.80 5.94L2.80 5.94Q3.47 5.68 4.28 5.68L4.28 5.68L4.28 5.68Q5.12 5.68 5.78 5.96L5.78 5.96L5.78 5.96Q6.44 6.23 6.90 6.71L6.90 6.71L6.90 6.71Q7.36 7.20 7.60 7.85L7.60 7.85L7.60 7.85Q7.84 8.50 7.84 9.24L7.84 9.24L7.84 9.41L5.99 9.41L5.99 9.24L5.99 9.24Q5.99 8.36 5.54 7.90L5.54 7.90L5.54 7.90Q5.08 7.45 4.26 7.45L4.26 7.45L4.26 7.45Q3.47 7.45 2.97 7.97L2.97 7.97L2.97 7.97Q2.46 8.50 2.46 9.77L2.46 9.77L2.46 11.84L2.46 11.84Q2.46 14.11 4.31 14.11L4.31 14.11L4.31 14.11Q5.14 14.11 5.57 13.67L5.57 13.67L5.57 13.67Q5.99 13.23 5.99 12.49L5.99 12.49L3.64 12.49ZM16.46 12.12L16.46 12.29L16.46 12.29Q16.46 13.16 16.17 13.82L16.17 13.82L16.17 13.82Q15.88 14.49 15.37 14.95L15.37 14.95L15.37 14.95Q14.87 15.40 14.22 15.64L14.22 15.64L14.22 15.64Q13.57 15.88 12.85 15.88L12.85 15.88L12.85 15.88Q12.14 15.88 11.49 15.64L11.49 15.64L11.49 15.64Q10.84 15.40 10.33 14.95L10.33 14.95L10.33 14.95Q9.83 14.49 9.53 13.82L9.53 13.82L9.53 13.82Q9.24 13.16 9.24 12.29L9.24 12.29L9.24 12.12L9.24 12.12Q9.24 11.27 9.53 10.61L9.53 10.61L9.53 10.61Q9.83 9.94 10.33 9.48L10.33 9.48L10.33 9.48Q10.84 9.02 11.49 8.78L11.49 8.78L11.49 8.78Q12.14 8.54 12.85 8.54L12.85 8.54L12.85 8.54Q13.57 8.54 14.22 8.78L14.22 8.78L14.22 8.78Q14.87 9.02 15.37 9.48L15.37 9.48L15.37 9.48Q15.88 9.94 16.17 10.61L16.17 10.61L16.17 10.61Q16.46 11.27 16.46 12.12L16.46 12.12ZM12.85 14.20L12.85 14.20L12.85 14.20Q13.23 14.20 13.57 14.07L13.57 14.07L13.57 14.07Q13.90 13.94 14.15 13.71L14.15 13.71L14.15 13.71Q14.41 13.47 14.55 13.13L14.55 13.13L14.55 13.13Q14.70 12.78 14.70 12.35L14.70 12.35L14.70 12.07L14.70 12.07Q14.70 11.63 14.55 11.29L14.55 11.29L14.55 11.29Q14.41 10.95 14.15 10.71L14.15 10.71L14.15 10.71Q13.90 10.47 13.57 10.35L13.57 10.35L13.57 10.35Q13.23 10.22 12.85 10.22L12.85 10.22L12.85 10.22Q12.47 10.22 12.14 10.35L12.14 10.35L12.14 10.35Q11.80 10.47 11.55 10.71L11.55 10.71L11.55 10.71Q11.30 10.95 11.15 11.29L11.15 11.29L11.15 11.29Q11.00 11.63 11.00 12.07L11.00 12.07L11.00 12.35L11.00 12.35Q11.00 12.78 11.15 13.13L11.15 13.13L11.15 13.13Q11.30 13.47 11.55 13.71L11.55 13.71L11.55 13.71Q11.80 13.94 12.14 14.07L12.14 14.07L12.14 14.07Q12.47 14.20 12.85 14.20ZM26.46 7.64L26.46 5.88L33.52 5.88L33.52 7.64L30.91 7.64L30.91 15.68L29.06 15.68L29.06 7.64L26.46 7.64ZM42.01 12.78L36.92 12.78L36.92 12.78Q36.93 13.09 37.06 13.35L37.06 13.35L37.06 13.35Q37.20 13.61 37.43 13.80L37.43 13.80L37.43 13.80Q37.66 13.99 37.96 14.09L37.96 14.09L37.96 14.09Q38.26 14.20 38.60 14.20L38.60 14.20L38.60 14.20Q39.26 14.20 39.61 13.96L39.61 13.96L39.61 13.96Q39.96 13.73 40.11 13.41L40.11 13.41L41.62 14.25L41.62 14.25Q41.50 14.52 41.27 14.80L41.27 14.80L41.27 14.80Q41.05 15.09 40.69 15.33L40.69 15.33L40.69 15.33Q40.33 15.57 39.82 15.72L39.82 15.72L39.82 15.72Q39.31 15.88 38.63 15.88L38.63 15.88L38.63 15.88Q37.84 15.88 37.20 15.62L37.20 15.62L37.20 15.62Q36.55 15.37 36.09 14.90L36.09 14.90L36.09 14.90Q35.62 14.42 35.36 13.73L35.36 13.73L35.36 13.73Q35.10 13.05 35.10 12.18L35.10 12.18L35.10 12.10L35.10 12.10Q35.10 11.30 35.37 10.64L35.37 10.64L35.37 10.64Q35.64 9.98 36.12 9.52L36.12 9.52L36.12 9.52Q36.60 9.06 37.23 8.80L37.23 8.80L37.23 8.80Q37.87 8.54 38.60 8.54L38.60 8.54L38.60 8.54Q39.49 8.54 40.14 8.86L40.14 8.86L40.14 8.86Q40.78 9.17 41.20 9.65L41.20 9.65L41.20 9.65Q41.62 10.14 41.82 10.72L41.82 10.72L41.82 10.72Q42.01 11.30 42.01 11.84L42.01 11.84L42.01 12.78ZM38.58 10.14L38.58 10.14L38.58 10.14Q37.91 10.14 37.49 10.48L37.49 10.48L37.49 10.48Q37.07 10.82 36.95 11.27L36.95 11.27L40.22 11.27L40.22 11.27Q40.14 10.78 39.70 10.46L39.70 10.46L39.70 10.46Q39.26 10.14 38.58 10.14ZM50.90 10.30L50.90 15.68L49.14 15.68L49.14 10.81L49.14 10.81Q49.14 10.51 48.99 10.37L48.99 10.37L48.99 10.37Q48.85 10.22 48.61 10.22L48.61 10.22L48.61 10.22Q48.33 10.22 48.17 10.39L48.17 10.39L48.17 10.39Q48.01 10.56 48.01 10.89L48.01 10.89L48.01 15.68L46.24 15.68L46.24 10.81L46.24 10.81Q46.24 10.51 46.08 10.37L46.08 10.37L46.08 10.37Q45.92 10.22 45.70 10.22L45.70 10.22L45.70 10.22Q45.44 10.22 45.28 10.39L45.28 10.39L45.28 10.39Q45.11 10.56 45.11 10.89L45.11 10.89L45.11 15.68L43.34 15.68L43.34 8.74L45.11 8.74L45.11 9.41L45.36 9.41L45.36 9.41Q45.44 9.03 45.74 8.79L45.74 8.79L45.74 8.79Q46.05 8.54 46.54 8.54L46.54 8.54L46.54 8.54Q47.00 8.54 47.32 8.79L47.32 8.79L47.32 8.79Q47.64 9.03 47.75 9.41L47.75 9.41L48.01 9.41L48.01 9.41Q48.12 9.03 48.47 8.79L48.47 8.79L48.47 8.79Q48.83 8.54 49.36 8.54L49.36 8.54L49.36 8.54Q50.06 8.54 50.48 9.01L50.48 9.01L50.48 9.01Q50.90 9.48 50.90 10.30L50.90 10.30ZM53.90 14.67L53.90 18.48L52.14 18.48L52.14 8.74L53.90 8.74L53.90 9.74L54.15 9.74L54.15 9.74Q54.43 9.17 54.96 8.86L54.96 8.86L54.96 8.86Q55.50 8.54 56.32 8.54L56.32 8.54L56.32 8.54Q56.94 8.54 57.49 8.78L57.49 8.78L57.49 8.78Q58.04 9.02 58.46 9.47L58.46 9.47L58.46 9.47Q58.87 9.93 59.11 10.58L59.11 10.58L59.11 10.58Q59.36 11.24 59.36 12.08L59.36 12.08L59.36 12.33L59.36 12.33Q59.36 13.19 59.12 13.85L59.12 13.85L59.12 13.85Q58.88 14.50 58.48 14.96L58.48 14.96L58.48 14.96Q58.07 15.41 57.52 15.64L57.52 15.64L57.52 15.64Q56.97 15.88 56.32 15.88L56.32 15.88L56.32 15.88Q55.85 15.88 55.50 15.78L55.50 15.78L55.50 15.78Q55.15 15.68 54.89 15.51L54.89 15.51L54.89 15.51Q54.63 15.34 54.45 15.13L54.45 15.13L54.45 15.13Q54.28 14.91 54.15 14.67L54.15 14.67L53.90 14.67ZM55.75 14.20L55.75 14.20L55.75 14.20Q56.57 14.20 57.08 13.68L57.08 13.68L57.08 13.68Q57.60 13.17 57.60 12.29L57.60 12.29L57.60 12.12L57.60 12.12Q57.60 11.24 57.08 10.73L57.08 10.73L57.08 10.73Q56.57 10.22 55.75 10.22L55.75 10.22L55.75 10.22Q54.92 10.22 54.41 10.74L54.41 10.74L54.41 10.74Q53.90 11.27 53.90 12.12L53.90 12.12L53.90 12.29L53.90 12.29Q53.90 13.15 54.41 13.67L54.41 13.67L54.41 13.67Q54.92 14.20 55.75 14.20ZM61.03 15.68L61.03 14L63.46 14L63.46 7.56L61.11 7.56L61.11 5.88L65.23 5.88L65.23 14L67.49 14L67.49 15.68L61.03 15.68ZM74.38 14.67L74.13 14.67L74.13 14.67Q73.85 15.33 73.35 15.60L73.35 15.60L73.35 15.60Q72.84 15.88 72.17 15.88L72.17 15.88L72.17 15.88Q71.54 15.88 70.99 15.64L70.99 15.64L70.99 15.64Q70.43 15.40 70.01 14.94L70.01 14.94L70.01 14.94Q69.59 14.48 69.35 13.82L69.35 13.82L69.35 13.82Q69.10 13.16 69.10 12.32L69.10 12.32L69.10 12.10L69.10 12.10Q69.10 11.27 69.34 10.61L69.34 10.61L69.34 10.61Q69.58 9.95 69.99 9.49L69.99 9.49L69.99 9.49Q70.39 9.03 70.93 8.79L70.93 8.79L70.93 8.79Q71.47 8.54 72.09 8.54L72.09 8.54L72.09 8.54Q72.83 8.54 73.28 8.79L73.28 8.79L73.28 8.79Q73.74 9.04 74.00 9.58L74.00 9.58L74.26 9.58L74.26 8.74L76.02 8.74L76.02 13.58L76.02 13.58Q76.02 14 76.40 14L76.40 14L76.66 14L76.66 15.68L75.46 15.68L75.46 15.68Q74.98 15.68 74.68 15.40L74.68 15.40L74.68 15.40Q74.38 15.12 74.38 14.67L74.38 14.67ZM72.56 14.20L72.56 14.20L72.56 14.20Q73.33 14.20 73.79 13.68L73.79 13.68L73.79 13.68Q74.26 13.17 74.26 12.29L74.26 12.29L74.26 12.12L74.26 12.12Q74.26 11.24 73.79 10.73L73.79 10.73L73.79 10.73Q73.33 10.22 72.56 10.22L72.56 10.22L72.56 10.22Q71.79 10.22 71.33 10.73L71.33 10.73L71.33 10.73Q70.87 11.24 70.87 12.12L70.87 12.12L70.87 12.29L70.87 12.29Q70.87 13.17 71.33 13.68L71.33 13.68L71.33 13.68Q71.79 14.20 72.56 14.20ZM78.01 10.42L78.01 8.74L80.07 8.74L80.07 5.88L81.83 5.88L81.83 8.74L84.34 8.74L84.34 10.42L81.83 10.42L81.83 13.58L81.83 13.58Q81.83 14 82.21 14L82.21 14L84.08 14L84.08 15.68L81.14 15.68L81.14 15.68Q80.67 15.68 80.37 15.37L80.37 15.37L80.37 15.37Q80.07 15.06 80.07 14.59L80.07 14.59L80.07 10.42L78.01 10.42ZM93.42 12.78L88.33 12.78L88.33 12.78Q88.34 13.09 88.47 13.35L88.47 13.35L88.47 13.35Q88.61 13.61 88.84 13.80L88.84 13.80L88.84 13.80Q89.07 13.99 89.37 14.09L89.37 14.09L89.37 14.09Q89.67 14.20 90.01 14.20L90.01 14.20L90.01 14.20Q90.66 14.20 91.01 13.96L91.01 13.96L91.01 13.96Q91.36 13.73 91.52 13.41L91.52 13.41L93.03 14.25L93.03 14.25Q92.90 14.52 92.68 14.80L92.68 14.80L92.68 14.80Q92.46 15.09 92.10 15.33L92.10 15.33L92.10 15.33Q91.74 15.57 91.23 15.72L91.23 15.72L91.23 15.72Q90.72 15.88 90.03 15.88L90.03 15.88L90.03 15.88Q89.25 15.88 88.61 15.62L88.61 15.62L88.61 15.62Q87.96 15.37 87.49 14.90L87.49 14.90L87.49 14.90Q87.02 14.42 86.76 13.73L86.76 13.73L86.76 13.73Q86.51 13.05 86.51 12.18L86.51 12.18L86.51 12.10L86.51 12.10Q86.51 11.30 86.78 10.64L86.78 10.64L86.78 10.64Q87.05 9.98 87.53 9.52L87.53 9.52L87.53 9.52Q88.00 9.06 88.64 8.80L88.64 8.80L88.64 8.80Q89.28 8.54 90.01 8.54L90.01 8.54L90.01 8.54Q90.90 8.54 91.55 8.86L91.55 8.86L91.55 8.86Q92.19 9.17 92.61 9.65L92.61 9.65L92.61 9.65Q93.03 10.14 93.23 10.72L93.23 10.72L93.23 10.72Q93.42 11.30 93.42 11.84L93.42 11.84L93.42 12.78ZM89.99 10.14L89.99 10.14L89.99 10.14Q89.32 10.14 88.90 10.48L88.90 10.48L88.90 10.48Q88.48 10.82 88.35 11.27L88.35 11.27L91.63 11.27L91.63 11.27Q91.55 10.78 91.10 10.46L91.10 10.46L91.10 10.46Q90.66 10.14 89.99 10.14ZM107.66 11.98L105.67 11.98L105.67 15.68L103.82 15.68L103.82 5.88L107.66 5.88L107.66 5.88Q108.42 5.88 108.98 6.13L108.98 6.13L108.98 6.13Q109.54 6.37 109.91 6.77L109.91 6.77L109.91 6.77Q110.28 7.17 110.47 7.68L110.47 7.68L110.47 7.68Q110.66 8.19 110.66 8.72L110.66 8.72L110.66 9.06L110.66 9.06Q110.66 9.60 110.47 10.13L110.47 10.13L110.47 10.13Q110.28 10.65 109.91 11.07L109.91 11.07L109.91 11.07Q109.54 11.48 108.98 11.73L108.98 11.73L108.98 11.73Q108.42 11.98 107.66 11.98L107.66 11.98ZM105.67 7.64L105.67 10.22L107.48 10.22L107.48 10.22Q108.09 10.22 108.45 9.88L108.45 9.88L108.45 9.88Q108.81 9.55 108.81 9.02L108.81 9.02L108.81 8.85L108.81 8.85Q108.81 8.32 108.45 7.98L108.45 7.98L108.45 7.98Q108.09 7.64 107.48 7.64L107.48 7.64L105.67 7.64ZM112.14 10.42L112.14 8.74L115.08 8.74L115.08 9.74L115.33 9.74L115.33 9.74Q115.53 9.17 116.00 8.86L116.00 8.86L116.00 8.86Q116.47 8.54 117.12 8.54L117.12 8.54L117.12 8.54Q118.16 8.54 118.79 9.19L118.79 9.19L118.79 9.19Q119.42 9.84 119.42 11.17L119.42 11.17L119.42 11.48L117.60 11.65L117.60 11.45L117.60 11.45Q117.60 10.88 117.31 10.54L117.31 10.54L117.31 10.54Q117.01 10.19 116.42 10.19L116.42 10.19L116.42 10.19Q115.84 10.19 115.50 10.60L115.50 10.60L115.50 10.60Q115.16 11.00 115.16 11.76L115.16 11.76L115.16 14L116.76 14L116.76 15.68L111.97 15.68L111.97 14L113.40 14L113.40 10.42L112.14 10.42ZM127.85 12.12L127.85 12.29L127.85 12.29Q127.85 13.16 127.55 13.82L127.55 13.82L127.55 13.82Q127.26 14.49 126.76 14.95L126.76 14.95L126.76 14.95Q126.25 15.40 125.60 15.64L125.60 15.64L125.60 15.64Q124.95 15.88 124.24 15.88L124.24 15.88L124.24 15.88Q123.52 15.88 122.87 15.64L122.87 15.64L122.87 15.64Q122.22 15.40 121.72 14.95L121.72 14.95L121.72 14.95Q121.21 14.49 120.92 13.82L120.92 13.82L120.92 13.82Q120.62 13.16 120.62 12.29L120.62 12.29L120.62 12.12L120.62 12.12Q120.62 11.27 120.92 10.61L120.92 10.61L120.92 10.61Q121.21 9.94 121.72 9.48L121.72 9.48L121.72 9.48Q122.22 9.02 122.87 8.78L122.87 8.78L122.87 8.78Q123.52 8.54 124.24 8.54L124.24 8.54L124.24 8.54Q124.95 8.54 125.60 8.78L125.60 8.78L125.60 8.78Q126.25 9.02 126.76 9.48L126.76 9.48L126.76 9.48Q127.26 9.94 127.55 10.61L127.55 10.61L127.55 10.61Q127.85 11.27 127.85 12.12L127.85 12.12ZM124.24 14.20L124.24 14.20L124.24 14.20Q124.61 14.20 124.95 14.07L124.95 14.07L124.95 14.07Q125.29 13.94 125.54 13.71L125.54 13.71L125.54 13.71Q125.79 13.47 125.94 13.13L125.94 13.13L125.94 13.13Q126.08 12.78 126.08 12.35L126.08 12.35L126.08 12.07L126.08 12.07Q126.08 11.63 125.94 11.29L125.94 11.29L125.94 11.29Q125.79 10.95 125.54 10.71L125.54 10.71L125.54 10.71Q125.29 10.47 124.95 10.35L124.95 10.35L124.95 10.35Q124.61 10.22 124.24 10.22L124.24 10.22L124.24 10.22Q123.86 10.22 123.52 10.35L123.52 10.35L123.52 10.35Q123.19 10.47 122.93 10.71L122.93 10.71L122.93 10.71Q122.68 10.95 122.53 11.29L122.53 11.29L122.53 11.29Q122.39 11.63 122.39 12.07L122.39 12.07L122.39 12.35L122.39 12.35Q122.39 12.78 122.53 13.13L122.53 13.13L122.53 13.13Q122.68 13.47 122.93 13.71L122.93 13.71L122.93 13.71Q123.19 13.94 123.52 14.07L123.52 14.07L123.52 14.07Q123.86 14.20 124.24 14.20ZM130.28 10.42L130.28 8.74L134.74 8.74L134.74 17.05L134.74 17.05Q134.74 17.78 134.34 18.13L134.34 18.13L134.34 18.13Q133.95 18.48 133.32 18.48L133.32 18.48L130.03 18.48L130.03 16.80L132.55 16.80L132.55 16.80Q132.97 16.80 132.97 16.34L132.97 16.34L132.97 10.42L130.28 10.42ZM135.16 6.68L135.16 6.68L135.16 6.68Q135.16 6.96 135.05 7.20L135.05 7.20L135.05 7.20Q134.95 7.45 134.76 7.62L134.76 7.62L134.76 7.62Q134.58 7.80 134.34 7.90L134.34 7.90L134.34 7.90Q134.09 8.01 133.83 8.01L133.83 8.01L133.83 8.01Q133.55 8.01 133.31 7.90L133.31 7.90L133.31 7.90Q133.07 7.80 132.89 7.62L132.89 7.62L132.89 7.62Q132.71 7.45 132.60 7.20L132.60 7.20L132.60 7.20Q132.50 6.96 132.50 6.68L132.50 6.68L132.50 6.68Q132.50 6.40 132.60 6.15L132.60 6.15L132.60 6.15Q132.71 5.91 132.89 5.73L132.89 5.73L132.89 5.73Q133.07 5.56 133.31 5.45L133.31 5.45L133.31 5.45Q133.55 5.35 133.83 5.35L133.83 5.35L133.83 5.35Q134.09 5.35 134.34 5.45L134.34 5.45L134.34 5.45Q134.58 5.56 134.76 5.73L134.76 5.73L134.76 5.73Q134.95 5.91 135.05 6.15L135.05 6.15L135.05 6.15Q135.16 6.40 135.16 6.68ZM144.83 12.78L139.73 12.78L139.73 12.78Q139.75 13.09 139.88 13.35L139.88 13.35L139.88 13.35Q140.01 13.61 140.25 13.80L140.25 13.80L140.25 13.80Q140.48 13.99 140.78 14.09L140.78 14.09L140.78 14.09Q141.08 14.20 141.41 14.20L141.41 14.20L141.41 14.20Q142.07 14.20 142.42 13.96L142.42 13.96L142.42 13.96Q142.77 13.73 142.93 13.41L142.93 13.41L144.44 14.25L144.44 14.25Q144.31 14.52 144.09 14.80L144.09 14.80L144.09 14.80Q143.86 15.09 143.51 15.33L143.51 15.33L143.51 15.33Q143.15 15.57 142.64 15.72L142.64 15.72L142.64 15.72Q142.13 15.88 141.44 15.88L141.44 15.88L141.44 15.88Q140.66 15.88 140.01 15.62L140.01 15.62L140.01 15.62Q139.37 15.37 138.90 14.90L138.90 14.90L138.90 14.90Q138.43 14.42 138.17 13.73L138.17 13.73L138.17 13.73Q137.91 13.05 137.91 12.18L137.91 12.18L137.91 12.10L137.91 12.10Q137.91 11.30 138.19 10.64L138.19 10.64L138.19 10.64Q138.46 9.98 138.94 9.52L138.94 9.52L138.94 9.52Q139.41 9.06 140.05 8.80L140.05 8.80L140.05 8.80Q140.69 8.54 141.41 8.54L141.41 8.54L141.41 8.54Q142.31 8.54 142.95 8.86L142.95 8.86L142.95 8.86Q143.60 9.17 144.02 9.65L144.02 9.65L144.02 9.65Q144.44 10.14 144.63 10.72L144.63 10.72L144.63 10.72Q144.83 11.30 144.83 11.84L144.83 11.84L144.83 12.78ZM141.40 10.14L141.40 10.14L141.40 10.14Q140.73 10.14 140.31 10.48L140.31 10.48L140.31 10.48Q139.89 10.82 139.76 11.27L139.76 11.27L143.04 11.27L143.04 11.27Q142.95 10.78 142.51 10.46L142.51 10.46L142.51 10.46Q142.07 10.14 141.40 10.14ZM151.79 12.70L153.52 13.13L153.52 13.13Q153.29 14.36 152.40 15.12L152.40 15.12L152.40 15.12Q151.51 15.88 150.02 15.88L150.02 15.88L150.02 15.88Q149.25 15.88 148.59 15.64L148.59 15.64L148.59 15.64Q147.92 15.40 147.43 14.95L147.43 14.95L147.43 14.95Q146.94 14.50 146.66 13.85L146.66 13.85L146.66 13.85Q146.38 13.19 146.38 12.35L146.38 12.35L146.38 12.18L146.38 12.18Q146.38 11.34 146.66 10.67L146.66 10.67L146.66 10.67Q146.94 10.00 147.44 9.52L147.44 9.52L147.44 9.52Q147.94 9.04 148.60 8.79L148.60 8.79L148.60 8.79Q149.27 8.54 150.02 8.54L150.02 8.54L150.02 8.54Q151.48 8.54 152.38 9.30L152.38 9.30L152.38 9.30Q153.29 10.05 153.52 11.28L153.52 11.28L151.79 11.73L151.79 11.73Q151.70 11.12 151.26 10.67L151.26 10.67L151.26 10.67Q150.81 10.22 150.00 10.22L150.00 10.22L150.00 10.22Q149.62 10.22 149.28 10.36L149.28 10.36L149.28 10.36Q148.95 10.50 148.69 10.76L148.69 10.76L148.69 10.76Q148.44 11.02 148.30 11.39L148.30 11.39L148.30 11.39Q148.15 11.76 148.15 12.22L148.15 12.22L148.15 12.31L148.15 12.31Q148.15 12.77 148.30 13.13L148.30 13.13L148.30 13.13Q148.44 13.48 148.69 13.72L148.69 13.72L148.69 13.72Q148.95 13.96 149.28 14.08L149.28 14.08L149.28 14.08Q149.62 14.20 150.00 14.20L150.00 14.20L150.00 14.20Q150.81 14.20 151.24 13.79L151.24 13.79L151.24 13.79Q151.66 13.38 151.79 12.70L151.79 12.70ZM155.12 10.42L155.12 8.74L157.18 8.74L157.18 5.88L158.94 5.88L158.94 8.74L161.45 8.74L161.45 10.42L158.94 10.42L158.94 13.58L158.94 13.58Q158.94 14 159.32 14L159.32 14L161.20 14L161.20 15.68L158.26 15.68L158.26 15.68Q157.78 15.68 157.48 15.37L157.48 15.37L157.48 15.37Q157.18 15.06 157.18 14.59L157.18 14.59L157.18 10.42L155.12 10.42Z"></path></g><defs data-v-fde0c5aa=""><!----></defs><g data-v-fde0c5aa="" id="c003fe78-48f2-4158-9f32-092e29a103b6" stroke="none" fill="#0DE927" transform="matrix(0.2822922468185425,0,0,0.2822922468185425,37.17707746399687,135.88538731998437)"><path d="M10 10v80h80V10H10zm70 34.996l-25-.013V20h25v24.996zM20 20h25v60H20V20zm35 60V54.984l25 .012V80H55z"></path></g><!----></svg>